<mxfile host="Electron" modified="2024-07-03T20:36:05.523Z" agent="Mozilla/5.0 (Windows NT 10.0; Win64; x64) AppleWebKit/537.36 (KHTML, like Gecko) draw.io/24.1.0 Chrome/120.0.6099.109 Electron/28.1.0 Safari/537.36" etag="4bbq77eG3DtF_YJkQFqd" version="24.1.0" type="device">
  <diagram name="第 1 页" id="Rq3XJcSXCHiINu8ByYgs">
    <mxGraphModel dx="1877" dy="1790" grid="1" gridSize="10" guides="1" tooltips="1" connect="1" arrows="1" fold="1" page="1" pageScale="1" pageWidth="827" pageHeight="1169" math="0" shadow="0">
      <root>
        <mxCell id="0" />
        <mxCell id="1" parent="0" />
        <mxCell id="nIxtc7H3scKheGFJdrLm-48" value="" style="rounded=1;whiteSpace=wrap;html=1;fillColor=none;dashed=1;strokeWidth=2;strokeColor=#19448E;" parent="1" vertex="1">
          <mxGeometry x="480" y="30" width="210" height="390" as="geometry" />
        </mxCell>
        <mxCell id="nIxtc7H3scKheGFJdrLm-39" value="" style="rounded=1;whiteSpace=wrap;html=1;fillColor=none;dashed=1;strokeWidth=2;strokeColor=#19448E;" parent="1" vertex="1">
          <mxGeometry x="480" y="30" width="210" height="240" as="geometry" />
        </mxCell>
        <mxCell id="nIxtc7H3scKheGFJdrLm-35" value="" style="rounded=1;whiteSpace=wrap;html=1;fillColor=none;dashed=1;strokeWidth=2;strokeColor=#19448E;" parent="1" vertex="1">
          <mxGeometry x="240" y="30" width="220" height="390" as="geometry" />
        </mxCell>
        <mxCell id="nIxtc7H3scKheGFJdrLm-30" value="" style="rounded=1;whiteSpace=wrap;html=1;fillColor=none;dashed=1;strokeWidth=2;strokeColor=#19448E;" parent="1" vertex="1">
          <mxGeometry x="-20" y="30" width="240" height="400" as="geometry" />
        </mxCell>
        <mxCell id="nIxtc7H3scKheGFJdrLm-20" value="" style="rounded=1;whiteSpace=wrap;html=1;fillColor=none;dashed=1;strokeWidth=2;strokeColor=#19448E;" parent="1" vertex="1">
          <mxGeometry x="240" y="30" width="220" height="240" as="geometry" />
        </mxCell>
        <mxCell id="nIxtc7H3scKheGFJdrLm-10" value="" style="rounded=1;whiteSpace=wrap;html=1;fillColor=none;dashed=1;strokeWidth=2;strokeColor=#19448E;" parent="1" vertex="1">
          <mxGeometry x="-20" y="30" width="240" height="240" as="geometry" />
        </mxCell>
        <mxCell id="nIxtc7H3scKheGFJdrLm-2" value="&lt;font size=&quot;1&quot; color=&quot;#19448e&quot;&gt;&lt;b style=&quot;font-size: 30px;&quot;&gt;②嵌入式&lt;/b&gt;&lt;/font&gt;" style="rounded=1;whiteSpace=wrap;html=1;strokeColor=#19448E;fontFamily=Times New Roman;strokeWidth=2;glass=0;shadow=1;" parent="1" vertex="1">
          <mxGeometry x="260" width="180" height="50" as="geometry" />
        </mxCell>
        <mxCell id="nIxtc7H3scKheGFJdrLm-3" value="&lt;font size=&quot;1&quot; color=&quot;#19448e&quot;&gt;&lt;b style=&quot;font-size: 30px;&quot;&gt;②软件/其他&lt;/b&gt;&lt;/font&gt;" style="rounded=1;whiteSpace=wrap;html=1;strokeColor=#19448E;fontFamily=Times New Roman;strokeWidth=2;glass=0;shadow=1;" parent="1" vertex="1">
          <mxGeometry x="495" width="180" height="50" as="geometry" />
        </mxCell>
        <mxCell id="nIxtc7H3scKheGFJdrLm-6" value="&lt;font style=&quot;font-size: 25px;&quot;&gt;自动瞄准系统&lt;/font&gt;" style="rounded=1;whiteSpace=wrap;html=1;strokeColor=none;fontFamily=Times New Roman;dashed=1;fontStyle=0;fontColor=#FFFFFF;fillColor=#19448E;" parent="1" vertex="1">
          <mxGeometry y="70" width="205" height="40" as="geometry" />
        </mxCell>
        <mxCell id="nIxtc7H3scKheGFJdrLm-8" value="&lt;font style=&quot;font-size: 25px;&quot;&gt;能量机关击打系统&lt;/font&gt;" style="rounded=1;whiteSpace=wrap;html=1;strokeColor=none;fontFamily=Times New Roman;dashed=1;fontStyle=0;fontColor=#FFFFFF;fillColor=#19448E;" parent="1" vertex="1">
          <mxGeometry y="130" width="205" height="40" as="geometry" />
        </mxCell>
        <mxCell id="nIxtc7H3scKheGFJdrLm-9" value="&lt;font style=&quot;font-size: 25px;&quot;&gt;轮腿机器人仪表监测和导航&lt;/font&gt;" style="rounded=1;whiteSpace=wrap;html=1;strokeColor=none;fontFamily=Times New Roman;dashed=1;fontStyle=0;fontColor=#FFFFFF;fillColor=#19448E;" parent="1" vertex="1">
          <mxGeometry y="188" width="210" height="60" as="geometry" />
        </mxCell>
        <mxCell id="nIxtc7H3scKheGFJdrLm-1" value="&lt;font size=&quot;1&quot; color=&quot;#19448e&quot;&gt;&lt;b style=&quot;font-size: 30px;&quot;&gt;①视觉算法&lt;/b&gt;&lt;/font&gt;" style="rounded=1;whiteSpace=wrap;html=1;strokeColor=#19448E;fontFamily=Times New Roman;strokeWidth=2;glass=0;shadow=1;" parent="1" vertex="1">
          <mxGeometry width="200" height="50" as="geometry" />
        </mxCell>
        <mxCell id="nIxtc7H3scKheGFJdrLm-12" value="&lt;font style=&quot;font-size: 17px;&quot;&gt;C++&lt;/font&gt;" style="rounded=1;whiteSpace=wrap;html=1;strokeColor=#19448E;fontFamily=Verdana;dashed=1;fillColor=#FFFFFF;fontColor=#19448E;autosize=1;arcSize=23;absoluteArcSize=1;fontSize=17;" parent="1" vertex="1">
          <mxGeometry x="-13" y="285" width="60" height="30" as="geometry" />
        </mxCell>
        <mxCell id="nIxtc7H3scKheGFJdrLm-13" value="&lt;font style=&quot;font-size: 17px;&quot;&gt;OpenCV&lt;/font&gt;" style="rounded=1;whiteSpace=wrap;html=1;strokeColor=#19448E;fontFamily=Verdana;dashed=1;fillColor=#FFFFFF;fontColor=#19448E;autosize=1;arcSize=23;absoluteArcSize=1;fontSize=17;" parent="1" vertex="1">
          <mxGeometry x="51.5" y="285" width="90" height="30" as="geometry" />
        </mxCell>
        <mxCell id="nIxtc7H3scKheGFJdrLm-14" value="&lt;font style=&quot;font-size: 17px;&quot;&gt;Linux&lt;/font&gt;" style="rounded=1;whiteSpace=wrap;html=1;strokeColor=#19448E;fontFamily=Verdana;dashed=1;fillColor=#FFFFFF;fontColor=#19448E;autosize=1;arcSize=23;absoluteArcSize=1;fontSize=17;" parent="1" vertex="1">
          <mxGeometry x="145" y="285" width="70" height="30" as="geometry" />
        </mxCell>
        <mxCell id="nIxtc7H3scKheGFJdrLm-15" value="&lt;font style=&quot;font-size: 17px;&quot;&gt;ROS2&lt;/font&gt;" style="rounded=1;whiteSpace=wrap;html=1;strokeColor=#19448E;fontFamily=Verdana;dashed=1;fillColor=#FFFFFF;fontColor=#19448E;autosize=1;arcSize=23;absoluteArcSize=1;fontSize=17;" parent="1" vertex="1">
          <mxGeometry x="-10" y="330" width="70" height="30" as="geometry" />
        </mxCell>
        <mxCell id="nIxtc7H3scKheGFJdrLm-18" value="&lt;font style=&quot;font-size: 25px;&quot;&gt;能量机关&lt;/font&gt;&lt;div&gt;&lt;font style=&quot;font-size: 25px;&quot;&gt;嵌入式部分&lt;/font&gt;&lt;/div&gt;" style="rounded=1;whiteSpace=wrap;html=1;strokeColor=none;fontFamily=Times New Roman;dashed=1;fontStyle=0;fontColor=#FFFFFF;fillColor=#19448E;fixedWidth=0;container=0;autosize=1;" parent="1" vertex="1">
          <mxGeometry x="275" y="70" width="150" height="70" as="geometry" />
        </mxCell>
        <mxCell id="nIxtc7H3scKheGFJdrLm-19" value="&lt;span style=&quot;font-size: 25px;&quot;&gt;海洋&lt;/span&gt;&lt;div&gt;&lt;span style=&quot;font-size: 25px;&quot;&gt;水质监测系统&lt;/span&gt;&lt;div&gt;&lt;span style=&quot;font-size: 25px;&quot;&gt;嵌入式部分&lt;/span&gt;&lt;/div&gt;&lt;/div&gt;" style="rounded=1;whiteSpace=wrap;html=1;strokeColor=none;fontFamily=Times New Roman;dashed=1;fontStyle=0;fontColor=#FFFFFF;fillColor=#19448E;fixedWidth=0;container=0;autosize=1;" parent="1" vertex="1">
          <mxGeometry x="265" y="148" width="170" height="100" as="geometry" />
        </mxCell>
        <mxCell id="nIxtc7H3scKheGFJdrLm-23" value="&lt;font style=&quot;font-size: 17px;&quot;&gt;STM32&lt;/font&gt;" style="rounded=1;whiteSpace=wrap;html=1;strokeColor=#19448E;fontFamily=Verdana;dashed=1;fillColor=#FFFFFF;fontColor=#19448E;autosize=1;arcSize=23;absoluteArcSize=1;fontSize=17;" parent="1" vertex="1">
          <mxGeometry x="250" y="285" width="80" height="30" as="geometry" />
        </mxCell>
        <mxCell id="nIxtc7H3scKheGFJdrLm-24" value="&lt;font style=&quot;font-size: 17px;&quot;&gt;立创EDA&lt;/font&gt;" style="rounded=1;whiteSpace=wrap;html=1;strokeColor=#19448E;fontFamily=Verdana;dashed=1;fillColor=#FFFFFF;fontColor=#19448E;autosize=1;arcSize=23;absoluteArcSize=1;fontSize=17;" parent="1" vertex="1">
          <mxGeometry x="250" y="328" width="90" height="30" as="geometry" />
        </mxCell>
        <mxCell id="nIxtc7H3scKheGFJdrLm-25" value="&lt;font style=&quot;font-size: 17px;&quot;&gt;C&lt;/font&gt;" style="rounded=1;whiteSpace=wrap;html=1;strokeColor=#19448E;fontFamily=Verdana;dashed=1;fillColor=#FFFFFF;fontColor=#19448E;autosize=1;arcSize=23;absoluteArcSize=1;fontSize=17;" parent="1" vertex="1">
          <mxGeometry x="340" y="285" width="40" height="30" as="geometry" />
        </mxCell>
        <mxCell id="nIxtc7H3scKheGFJdrLm-26" value="&lt;font style=&quot;font-size: 17px;&quot;&gt;PP-YOLO-V2&lt;/font&gt;" style="rounded=1;whiteSpace=wrap;html=1;strokeColor=#19448E;fontFamily=Verdana;dashed=1;fillColor=#FFFFFF;fontColor=#19448E;autosize=1;arcSize=23;absoluteArcSize=1;fontSize=17;" parent="1" vertex="1">
          <mxGeometry x="70" y="330" width="130" height="30" as="geometry" />
        </mxCell>
        <mxCell id="nIxtc7H3scKheGFJdrLm-27" value="&lt;font style=&quot;font-size: 17px;&quot;&gt;FAST-LIO2&lt;/font&gt;" style="rounded=1;whiteSpace=wrap;html=1;strokeColor=#19448E;fontFamily=Verdana;dashed=1;fillColor=#FFFFFF;fontColor=#19448E;autosize=1;arcSize=23;absoluteArcSize=1;fontSize=17;" parent="1" vertex="1">
          <mxGeometry x="-10" y="373" width="110" height="30" as="geometry" />
        </mxCell>
        <mxCell id="nIxtc7H3scKheGFJdrLm-28" value="Unity" style="rounded=1;whiteSpace=wrap;html=1;strokeColor=#19448E;fontFamily=Verdana;dashed=1;fillColor=#FFFFFF;fontColor=#19448E;autosize=1;arcSize=23;absoluteArcSize=1;fontSize=17;" parent="1" vertex="1">
          <mxGeometry x="110" y="373" width="70" height="30" as="geometry" />
        </mxCell>
        <mxCell id="nIxtc7H3scKheGFJdrLm-29" value="&lt;font style=&quot;font-size: 17px;&quot;&gt;HAL库&lt;/font&gt;" style="rounded=1;whiteSpace=wrap;html=1;strokeColor=#19448E;fontFamily=Verdana;dashed=1;fillColor=#FFFFFF;fontColor=#19448E;autosize=1;arcSize=23;absoluteArcSize=1;fontSize=17;" parent="1" vertex="1">
          <mxGeometry x="390" y="285" width="70" height="30" as="geometry" />
        </mxCell>
        <mxCell id="nIxtc7H3scKheGFJdrLm-31" value="&lt;font style=&quot;font-size: 17px;&quot;&gt;AD09/22&lt;/font&gt;" style="rounded=1;whiteSpace=wrap;html=1;strokeColor=#19448E;fontFamily=Verdana;dashed=1;fillColor=#FFFFFF;fontColor=#19448E;autosize=1;arcSize=23;absoluteArcSize=1;fontSize=17;" parent="1" vertex="1">
          <mxGeometry x="350" y="328" width="100" height="30" as="geometry" />
        </mxCell>
        <mxCell id="nIxtc7H3scKheGFJdrLm-32" value="M3508" style="rounded=1;whiteSpace=wrap;html=1;strokeColor=#19448E;fontFamily=Verdana;dashed=1;fillColor=#FFFFFF;fontColor=#19448E;autosize=1;arcSize=23;absoluteArcSize=1;fontSize=17;" parent="1" vertex="1">
          <mxGeometry x="250" y="370" width="80" height="30" as="geometry" />
        </mxCell>
        <mxCell id="nIxtc7H3scKheGFJdrLm-34" value="HC-05" style="rounded=1;whiteSpace=wrap;html=1;strokeColor=#19448E;fontFamily=Verdana;dashed=1;fillColor=#FFFFFF;fontColor=#19448E;autosize=1;arcSize=23;absoluteArcSize=1;fontSize=17;" parent="1" vertex="1">
          <mxGeometry x="340" y="370" width="80" height="30" as="geometry" />
        </mxCell>
        <mxCell id="nIxtc7H3scKheGFJdrLm-36" value="&lt;span style=&quot;font-size: 25px;&quot;&gt;海洋&lt;/span&gt;&lt;div&gt;&lt;span style=&quot;font-size: 25px;&quot;&gt;水质监测系统&lt;/span&gt;&lt;/div&gt;&lt;div&gt;&lt;span style=&quot;font-size: 25px;&quot;&gt;后台管理系统&lt;/span&gt;&lt;/div&gt;" style="rounded=1;whiteSpace=wrap;html=1;strokeColor=none;fontFamily=Times New Roman;dashed=1;fontStyle=0;fontColor=#FFFFFF;fillColor=#19448E;fixedWidth=0;container=0;autosize=1;" parent="1" vertex="1">
          <mxGeometry x="505" y="70" width="170" height="100" as="geometry" />
        </mxCell>
        <mxCell id="nIxtc7H3scKheGFJdrLm-37" value="&lt;div&gt;&lt;span style=&quot;font-size: 25px;&quot;&gt;外壳&lt;/span&gt;&lt;/div&gt;" style="rounded=1;whiteSpace=wrap;html=1;strokeColor=none;fontFamily=Times New Roman;dashed=1;fontStyle=0;fontColor=#FFFFFF;fillColor=#19448E;fixedWidth=0;container=0;autosize=1;" parent="1" vertex="1">
          <mxGeometry x="555" y="185" width="70" height="40" as="geometry" />
        </mxCell>
        <mxCell id="nIxtc7H3scKheGFJdrLm-40" value="JavaScript" style="rounded=1;whiteSpace=wrap;html=1;strokeColor=#19448E;fontFamily=Verdana;dashed=1;fillColor=#FFFFFF;fontColor=#19448E;autosize=1;arcSize=23;absoluteArcSize=1;fontSize=17;" parent="1" vertex="1">
          <mxGeometry x="485" y="290" width="110" height="30" as="geometry" />
        </mxCell>
        <mxCell id="nIxtc7H3scKheGFJdrLm-41" value="React" style="rounded=1;whiteSpace=wrap;html=1;strokeColor=#19448E;fontFamily=Verdana;dashed=1;fillColor=#FFFFFF;fontColor=#19448E;autosize=1;arcSize=23;absoluteArcSize=1;fontSize=17;" parent="1" vertex="1">
          <mxGeometry x="605" y="290" width="70" height="30" as="geometry" />
        </mxCell>
        <mxCell id="nIxtc7H3scKheGFJdrLm-42" value="Html" style="rounded=1;whiteSpace=wrap;html=1;strokeColor=#19448E;fontFamily=Verdana;dashed=1;fillColor=#FFFFFF;fontColor=#19448E;autosize=1;arcSize=23;absoluteArcSize=1;fontSize=17;" parent="1" vertex="1">
          <mxGeometry x="490" y="328" width="60" height="30" as="geometry" />
        </mxCell>
        <mxCell id="nIxtc7H3scKheGFJdrLm-43" value="CSS" style="rounded=1;whiteSpace=wrap;html=1;strokeColor=#19448E;fontFamily=Verdana;dashed=1;fillColor=#FFFFFF;fontColor=#19448E;autosize=1;arcSize=23;absoluteArcSize=1;fontSize=17;" parent="1" vertex="1">
          <mxGeometry x="555" y="328" width="60" height="30" as="geometry" />
        </mxCell>
        <mxCell id="nIxtc7H3scKheGFJdrLm-44" value="Meteor" style="rounded=1;whiteSpace=wrap;html=1;strokeColor=#19448E;fontFamily=Verdana;dashed=1;fillColor=#FFFFFF;fontColor=#19448E;autosize=1;arcSize=23;absoluteArcSize=1;fontSize=17;" parent="1" vertex="1">
          <mxGeometry x="490" y="366" width="80" height="30" as="geometry" />
        </mxCell>
        <mxCell id="nIxtc7H3scKheGFJdrLm-45" value="Node" style="rounded=1;whiteSpace=wrap;html=1;strokeColor=#19448E;fontFamily=Verdana;dashed=1;fillColor=#FFFFFF;fontColor=#19448E;autosize=1;arcSize=23;absoluteArcSize=1;fontSize=17;" parent="1" vertex="1">
          <mxGeometry x="620" y="328" width="70" height="30" as="geometry" />
        </mxCell>
        <mxCell id="nIxtc7H3scKheGFJdrLm-46" value="Docker" style="rounded=1;whiteSpace=wrap;html=1;strokeColor=#19448E;fontFamily=Verdana;dashed=1;fillColor=#FFFFFF;fontColor=#19448E;autosize=1;arcSize=23;absoluteArcSize=1;fontSize=17;" parent="1" vertex="1">
          <mxGeometry x="580" y="366" width="80" height="30" as="geometry" />
        </mxCell>
      </root>
    </mxGraphModel>
  </diagram>
</mxfile>
